<svg id="Warstwa_1" data-name="Warstwa 1" xmlns="http://www.w3.org/2000/svg" viewBox="0 0 704.06 433.76"><defs><style>.cls-1{fill:#5aba47;}.cls-2{fill:#327569;}</style></defs><title>Obszar roboczy 1</title><path class="cls-1" d="M63.58,63.52c84.68-84.69,222-84.69,306.68,0L63.58,370.19C-21.11,285.51-21.11,148.2,63.58,63.52Z"/><path class="cls-2" d="M63.52,370.25c84.68,84.68,222,84.68,306.68,0L63.52,63.57C-21.17,148.25-21.17,285.56,63.52,370.25Z"/><path class="cls-2" d="M373.54,214.62a51.38,51.38,0,0,1-14.65,8.49,50,50,0,0,1-16.51,2.44,48.82,48.82,0,0,1-19.77-4.06,51.43,51.43,0,0,1-27.09-27.1,50,50,0,0,1,0-39.53,53.49,53.49,0,0,1,10.93-16.28,51,51,0,0,1,16.16-11.05,48.83,48.83,0,0,1,19.77-4.07,47.88,47.88,0,0,1,19.3,4,51.77,51.77,0,0,1,16.05,10.93,54.37,54.37,0,0,1,15.81,36.28v20.47l-20-16.28Zm-30.7-12.79q10.47,0,17.44-4.18a28.41,28.41,0,0,0,10.47-10.35,26,26,0,0,0,3.37-13.49,27.94,27.94,0,0,0-3.6-13.49A28.64,28.64,0,0,0,360.05,150q-7-4.18-17.21-4.18-13.24,0-21.39,7.79t-8.14,21.28q0,13.24,8.14,20.11T342.84,201.83Z"/><path class="cls-1" d="M458.66,225.55l-53.49-55.11V71.83L426.33,90.2v66.52l32.33-33.49h25.58l-47.44,50.7q16.27,16.27,25.12,25.81t13.37,14.77q4.53,5.24,6,7.44a25.09,25.09,0,0,0,2.91,3.6Z"/><path class="cls-1" d="M495.87,89.74h21.4v33.49l-21.4-20.7Zm0,135.81V123.23h21.4V225.55Z"/><path class="cls-1" d="M588.89,123.23v18.84H571.45v59.07l-21.63,24.41V142.07l-20.93-18.84h20.93V71.6h21.63v51.63Z"/><path class="cls-2" d="M682.62,214.62A51.52,51.52,0,0,1,668,223.11a50.09,50.09,0,0,1-16.52,2.44,48.77,48.77,0,0,1-19.76-4.06,51.4,51.4,0,0,1-27.1-27.1,50,50,0,0,1,0-39.53,53.67,53.67,0,0,1,10.93-16.28,50.9,50.9,0,0,1,16.17-11.05,48.78,48.78,0,0,1,19.76-4.07,47.93,47.93,0,0,1,19.31,4,51.85,51.85,0,0,1,16,10.93,54.32,54.32,0,0,1,15.82,36.28v20.47l-20-16.28Zm-30.7-12.79q10.47,0,17.44-4.18a28.56,28.56,0,0,0,10.47-10.35,26.19,26.19,0,0,0,3.37-13.49,27.84,27.84,0,0,0-3.61-13.49A28.53,28.53,0,0,0,669.13,150q-7-4.18-17.21-4.18-13.26,0-21.4,7.79t-8.14,21.28q0,13.24,8.14,20.11T651.92,201.83Z"/><path class="cls-1" d="M316.07,249.73a5.08,5.08,0,0,1,1.12.06,2,2,0,0,1,1.18.4l1-.23.55.06.4.78-.05.58a2.25,2.25,0,0,0-.78,1h-.29l-.32.35a4.44,4.44,0,0,1-1.21.49l0,5.36.46,2.76.05,2.86.44,3.48,1.81,5a4.58,4.58,0,0,1,.66.86,5.82,5.82,0,0,1,1.82-.81q1.19-1.35,1.53-1.41V271l3.25-2.77.06-.52c.21,0,.62-.41,1.24-1.12l1.06.23.58,1.3-.23,1.12-.58-.23-.29.63h-.54A3.3,3.3,0,0,1,328,271v.32l-1.59,1.47-.29.75a15.5,15.5,0,0,1-1.84,1L324,275l-.06-.14-.34.6-.78.23-.12.4h-.4l.17.44-.46.89-.43.11c0,.31-.28.88-1,1.7l-1.35.06-.29.84-.84.23a2.6,2.6,0,0,1-1.53-1.18L314.71,276l-1.84-4.12.17-1.53-.4-1.35.29-.06a6.42,6.42,0,0,1-.84-2.54l.15-1.06-.9-.55-.6.37v-.14l-.29.14-.78,2-.4-.17-.12.4-.28-.11v.26h-.12a11.29,11.29,0,0,1-.83,1.47l-.23-.12-.18,1.24-.6.32a1.54,1.54,0,0,0-.78.75l-.23.57.26.35-.66.23-.29,1.18-.49.26.14.23a5.77,5.77,0,0,1-1.12.69l-.26.43-.23-.31-.4,1h-.35l-.49,1.67-.52.18-.06.86h-.83l-.84,1.9-.4.29H299l-.11.55-1.84.69-1.94.06-.83-5.48.35-.72.08-.57a12.59,12.59,0,0,1,.69-1.73l-.11-.4a9.68,9.68,0,0,1,.69-1.42l-.23-.11.55-1.41,0-.55a5.38,5.38,0,0,1,.44-1.07,3.81,3.81,0,0,0-.46-1.58l.23-.4.75.11a4,4,0,0,1,.83-1l.17-.52h.12l-.4-.6.34-1.53.23.12a2.73,2.73,0,0,1,.43-.9l-.11-.75.81-1.49v-.41l-.18-.34,1.18-2.54,1.36-1.84a6.9,6.9,0,0,0,1.18-1.36l1-.4,1.35-1.41,1.3-.78h.78l.63-.17h.89l.41-.67.83.06h.84V250a1.73,1.73,0,0,1,.75.29l.89-.35.66.18.17-.23.7.23Zm-7.43,4.56-.72.11-.9-.06-.29.52v.43a6.52,6.52,0,0,1-1,.41l-.52,1.29a8.37,8.37,0,0,1-.49,1.76h-.29l-.4.95-.2.81a.92.92,0,0,1-.58.6l-.29,1-.46.87a2.19,2.19,0,0,0-.26,1v.23L302,264v.46h-.17l.06.29-.23.49-.35,1.53-.6,1.24-.12,1.75-.17.26h-.12l-.11.52.23.23-.29,1.07H300l.12.34h-.43l.06,2.14.25,1h.12l.63-.61,1.67-2.36,3-3.95.89-.95,2-3.23,2.08-2.76.17-.61-.4-.52.74-1.29.18-1a3,3,0,0,1,.49-.75l.05-2.31-.77-.05h-.64l-.83-.58-.18.29Z"/><path class="cls-1" d="M339.82,254.4a8.25,8.25,0,0,0-.05,1c0,1,.29,1.47.89,1.47a1.2,1.2,0,0,0,.4-.06v-.49l2.08-1,1-1.12.2.17a1.49,1.49,0,0,1,1.41-1.23l-.06-.24c.66-.49,1.2-.94,1.64-1.32a2.54,2.54,0,0,0,1.53-.63l.32.23,1.53-.64,2.53-.72a3.64,3.64,0,0,1,2.36-.95h.18l-.12-.17a5.9,5.9,0,0,1,2.1-.87l1.33-.31c.86,0,1.3.61,1.3,1.84,0,.27-.19.4-.55.4h-.12V250l-.34.17.34.06-1.41,2.36-.34.32.17.18-.23-.06c-.29,0-.43.09-.43.29a.46.46,0,0,0,.17.34,4.75,4.75,0,0,0-1.24,2.08l-.06-.12-1,.4a34.23,34.23,0,0,1-2.13,2.81,1,1,0,0,1-.6.33h-.06l-.09.26a2.31,2.31,0,0,1-.52.68,12.09,12.09,0,0,1-1.64,1.4c-.77.57-1.61,1.19-2.53,1.84l-.23,1.7.66.72.12,1,.34.4.29,1.91,1.24,1.41.72,1.75a6.5,6.5,0,0,0,1.64,1.62l.17.46.2-.12q0,.18.06.18h.12a2.91,2.91,0,0,0,.72.27,7.59,7.59,0,0,1,1.32.56l.32.58.35.17,1.06.12a4.56,4.56,0,0,0,1.47.26l-.06.17.95.06.93.23.77-.12.46.12,0,.11,1.61.17a1.73,1.73,0,0,0,.63-1.12l-.23-1.12c0-.62.42-1.05,1.24-1.3l.06.12.06-.29.17.11.12-.69.26.06.05-.23a.71.71,0,0,1,.52-.26h.12a1.67,1.67,0,0,1,1,.72,2,2,0,0,1,.34,1.07l-.17.95.29.57-.06.84.2.81a4.87,4.87,0,0,1,.23,1.29,2.32,2.32,0,0,1-.37,1.24l-.29-.06-.72.72-.35-.05.12.34a2,2,0,0,1-1.24.38h-1.12l-1-1a3.75,3.75,0,0,0-.84.24,2.43,2.43,0,0,1-.89.22,2.38,2.38,0,0,1-1.07-.38,4.92,4.92,0,0,0-1.29-.52L358,280a4.9,4.9,0,0,0-1.78-.43h-.29a.48.48,0,0,1-.35.17c-.23,0-.37-.23-.43-.69l-.69.18a3.39,3.39,0,0,1-.72-.52l-1.36-.32a.58.58,0,0,1-.28.06,1.13,1.13,0,0,1-.55-.23l-.23.11-.17-.46a5.14,5.14,0,0,1-1.3-.66l-.17.06a.68.68,0,0,1-.32-.09,2.22,2.22,0,0,1-.4-.26l-.46-.37c-.18-.12-.35-.23-.51-.35l-.62-.42a2.12,2.12,0,0,1-.59-.56,8.25,8.25,0,0,0-.52-.67,6,6,0,0,0-.59-.62h-.17a.6.6,0,0,1-.38-.12l-.17-1-.52-.17-.05-.2a4.18,4.18,0,0,1-.93-1.23,4.36,4.36,0,0,0-1.09-1.37,2.09,2.09,0,0,0,.89-.46q-.28-.51-.66-.51c-.15,0-.23.15-.23.46l-.66-2.19h.14c-.13-.43-.34-.66-.6-.69l-.95-1.5-.7.37.12,1.47-.23,1.47.11.95h-.28a21.45,21.45,0,0,0-.65,2.75,5,5,0,0,1-.85,2.32l-.23.95-.61.69a6.92,6.92,0,0,0-.46,2.37,2.45,2.45,0,0,1-.52.54l-.17-.11-.43.8-.35.12.12.23h-.35a.5.5,0,0,1-.55.43h-.17c-.21.27-.38.41-.52.41s-.34,0-.4-.12l.23.23H333a.8.8,0,0,0-.7.84h-.77l-.52-1.47-1.24-.32a1.42,1.42,0,0,1,1.35-.86l.2-1a3.7,3.7,0,0,1,.58-.81v-.81c.12,0,.19-.24.23-.62a13.7,13.7,0,0,1,.35-1.74l.34-.32v-.4l.32-.75.17.12v-.44l-.17.12.17-.06a.18.18,0,0,1-.11-.17,1.73,1.73,0,0,1,.2-.55c.13-.29.35-.91.66-1.87l.43-.29a3.5,3.5,0,0,1,.48-2.07,6.23,6.23,0,0,0,.45-.58,4.89,4.89,0,0,0-.29-.66l.11-.69-.46-.78c0-.6.08-1,.12-1.31a6.42,6.42,0,0,1,.89-1.8,2.74,2.74,0,0,0,.46-1.85,2.12,2.12,0,0,0-.46-.95H336v-.92h.12c.19,0,.29-.1.29-.32a2.59,2.59,0,0,0-.12-.4h-.17c0-.4.07-.66.23-.78l.17-1.47-.17-.4a8.77,8.77,0,0,1,.57-1,1.6,1.6,0,0,0,.32-.91,1.26,1.26,0,0,0-.17-.5,1.21,1.21,0,0,1-.17-.57,3.32,3.32,0,0,1,.4-1.35h.29a2.87,2.87,0,0,1-.41-1.81l.12-.18-.4-.26a2.24,2.24,0,0,1-.26-.8.84.84,0,0,1,.26-.67v-.51h.17l.34-1.24h-.11l.11-.67-.77-.51v-2.14l-.64.23a2,2,0,0,0-.54-.11,1.89,1.89,0,0,0-1.13.43V242l-.23-.12-.4.63-.95-.11c-.27,0-.41.06-.41.17a1,1,0,0,0,.18.49l-1.47-.43v.29l-1,.14-.12.41-1.35.95-.66-.32v.2h-.41l-.17-.43-.35.23-.31-1.18h-.12l-.29-.41,1.36-.95a2.33,2.33,0,0,1,.63-1,3.35,3.35,0,0,1,1.27-.58l2.1-.63,2.13-.21,2.83-1.29.11-.41.84-.4h.95l-.18-.66v-.4l.41-.29a.89.89,0,0,1,.55.29v-.29l.17-.15.11-.29,2.65-2,.12.17H343a1.63,1.63,0,0,1,1.11.29,1.46,1.46,0,0,1,.3,1.06v.46h.12a9.71,9.71,0,0,0-.84,2.19,3.49,3.49,0,0,0,.12.67l-.35.11.18.18-.47.11.12.95-.66,1.7-.12,1.64-.52,1.3v.55l-.72,1.12v1.58l-.52,1.07-.43,1.87h.38v.2a3.65,3.65,0,0,1-.25,1.33,3.63,3.63,0,0,0-.24.83l.11,1v1ZM352,253.22v.12a1.64,1.64,0,0,1-.36.08q-.24,0-.24.15l-.52.05v.12l-.95.17a2.56,2.56,0,0,1-1,.43,9.75,9.75,0,0,0-1.46.77,4,4,0,0,0-1,.93c-.27.37-.55.76-.84,1.18v-.17a9.5,9.5,0,0,1-2.53,2.25,1.57,1.57,0,0,0-1,.55,4.6,4.6,0,0,1-.33.46l-.14-.06-.29.06a3.69,3.69,0,0,0-1.12,1.64.5.5,0,0,1,.11.34l0,.38c.24,0,.37.1.37.29a.24.24,0,0,1,.17-.06.58.58,0,0,1,.41.17l.34-.05,1.85-.73.4-.8.66.29.75-.06.12-.66a.52.52,0,0,0,.6-.58,5.08,5.08,0,0,1,1.47-.66l.29-.46,1.61-.78.06-.46.11.11c1-.3,1.94-1.49,2.71-3.54l.66-.4.24-.72v-.18c0-.23-.11-.34-.32-.34h-.12Z"/><path class="cls-1" d="M379.54,255h-.12l-.23,1.5.23.18-.4,1.06-.11-.2V258a3.54,3.54,0,0,1-1.07,2.42h.23v.52H378l.11,3.37-.23.4.12.55-.44,2.1h.15a7,7,0,0,1-.29,1.65l-.26.77-.35,3.84c-.07.38-.11.6-.11.66,0,.34.15.52.46.52a2.34,2.34,0,0,0,1.21-.43l1.87-1.27c.52-.64.89-1,1.13-1h.17a2.63,2.63,0,0,0,.92-.78,2.06,2.06,0,0,1,.66-.63q.44-.78.78-.78l.23.06,1.07.2.23.8a3.35,3.35,0,0,1-.46,1.52c-.31.56-.56,1-.74,1.41a2.1,2.1,0,0,1-1.22.91v.2l-.41-.12v.41h-.25a.92.92,0,0,1-.81.89v.17h-.78v.12h-.29l-.77.51h-.24l-.4.55-1.18.18a.58.58,0,0,1-.55.34l-1.47,1.07v.23l-.72-.12.2.29-.95.23V280H374v.41l-.43.29h-.12v.11c-.25.71-.6,1.07-1.06,1.07l-.41-.12a6.88,6.88,0,0,0-1.18-2.13,5.9,5.9,0,0,0,.23-1.35l-.23-1.19v-.63a9.88,9.88,0,0,1,.18-1.84l.17-.75v-.15H371s-.06,0-.06-.05a9.65,9.65,0,0,1,.28-.93,7.64,7.64,0,0,0,.27-2.24c0-.23-.09-.37-.26-.41l.38-.77v-3.49l.46-1a8,8,0,0,0,.46-1.81c.25-.16.39-.3.43-.43l-.23-.35.23-.58c-.31-.59-.66-.89-1.07-.89h-1.35a.73.73,0,0,0-.23.52h-.2a1.1,1.1,0,0,1-.75.95,1,1,0,0,1-.84.89l-.52.84h-.11c-.14.42-.37.63-.72.63s-.7-.28-.94-.83a6.34,6.34,0,0,1-.36-.93.41.41,0,0,1,.12-.25,3.31,3.31,0,0,1,1.78-2.11v-.23a4.94,4.94,0,0,1,1.3-.95h-.26a1.66,1.66,0,0,0,1.46-1.28c.14-.68.64-1,1.51-1l.34.11.72-.34h-.43l.67-.44.17.12.52-.63.14.11a1.52,1.52,0,0,1,1.59-.84c.19,0,.28-.07.28-.23v-.28h.23l-.11-.12.95-.66a1.57,1.57,0,0,1,1.47-.81,1.86,1.86,0,0,1,1.11.35.93.93,0,0,1,.47.69A2.34,2.34,0,0,1,379.54,255Zm4.18-16.85h-.18l-1.06,2.28-.12-.12a.68.68,0,0,1-.28.55V241a3.88,3.88,0,0,1-1.59,1.46l-.23-.11v.23a5,5,0,0,1-1.74-.48,2,2,0,0,1-.93-1.09c-.2-.51-.39-1-.59-1.6a2.15,2.15,0,0,1,.72-.72l.24-.78,1-.52.51-1.12.95-.52v.18l.52.23a1.43,1.43,0,0,0,.28-.19.92.92,0,0,1,.2-.17,2.16,2.16,0,0,1,.68-.24,2.7,2.7,0,0,0,.83-.3l.32-.17h.23l.43.66v.92l.12.84Z"/><path class="cls-1" d="M402.55,244.17a5.26,5.26,0,0,1-.95,2.14v.54l-.64,1.47v1l-.83,2v.29c0,.44.14.66.43.66l.92-.29a3.15,3.15,0,0,0,1.5.52h1.3A12.28,12.28,0,0,1,407,252a17.71,17.71,0,0,1,2.31.17v.18l1.06.11,1,1.18-.92,1.18-1.67.23-1.64.9-.64.11a3.25,3.25,0,0,0-.95.49l-1.78-.2c-.12.17-.65.28-1.59.32l-3,.11a10.15,10.15,0,0,0-1.7,1.36l.11,1.47-.4.66-.23,2.1-.72.95-.12,2.54-.72.4-.11.72.43,1.47-.55,5.33,1.18,4.58,1.36-.57a1.47,1.47,0,0,1,1.47-.78h.54a3.89,3.89,0,0,0,2.14-1.59l1.35-.4-.17-.14.4-.52a2.13,2.13,0,0,0,.69-.72l.84-.29.23-.52a.38.38,0,0,0,.43-.43,4.14,4.14,0,0,1,2.53-1.47.62.62,0,0,1,.41.55,7.28,7.28,0,0,1-.52,2,4.23,4.23,0,0,1-1.35,2l-1.62,1.12-.49.67a1.39,1.39,0,0,1-.66.57l-1,.46-.8.23-1.73,1.56-1,.12L398,281.25l-.55.55a1.94,1.94,0,0,1-.61.31l-3.66,1.45-.83.11-.66.52-1.36-.89-.4-1.76-.43-.92c-.12-.29-.5-2.35-1.16-6.17a8.89,8.89,0,0,1,.52-1v-1l.72-.29.87-2.42-.29-.81a4.72,4.72,0,0,0,1.31-.34.39.39,0,0,0,.1-.26,3,3,0,0,0-.29-.7l1-2.85.29-2.53,1.3-3.49a2.28,2.28,0,0,0-.84-1.25,3,3,0,0,0-1.41-.74l-1.12.69h-.35a2.49,2.49,0,0,1-1.19-.2,3.39,3.39,0,0,0-.39-.2,1.22,1.22,0,0,0-.66.29c-.18.4-.41.6-.7.6h-.11a1.42,1.42,0,0,1-.49.06,10.49,10.49,0,0,1-1.12-.11,9.31,9.31,0,0,1-.58-2,4.16,4.16,0,0,1,.42-1.3c.27-.63.57-.95.88-.95l.4.06.83-.23a5.19,5.19,0,0,1,1.13-.23h.17a.79.79,0,0,0,.35.06,1,1,0,0,0,.5-.12,1,1,0,0,1,.5-.11.83.83,0,0,1,.52.11l1.07-.55H392a2.65,2.65,0,0,0,.77-.11c.23-.08.52-.47.87-1.18l.63.11a5.88,5.88,0,0,1,.72-1.7c.35,0,.52-.3.52-.83v-.35l-.17.23c.29-.75.53-1.31.72-1.7l-.18-1.12,1.24-2.36a2.15,2.15,0,0,1,1.36-1,6.13,6.13,0,0,1,1.93-1.69,4.9,4.9,0,0,1,1.78-.84,1.13,1.13,0,0,1,1.24.89l-.83,1.64Z"/><path class="cls-1" d="M430.6,249.73a5.09,5.09,0,0,1,1.12.06,2,2,0,0,1,1.18.4l1-.23.55.06.4.78-.06.58a2.41,2.41,0,0,0-.78,1h-.28l-.32.35a4.61,4.61,0,0,1-1.21.49l-.06,5.36.46,2.76.06,2.86.43,3.48,1.82,5a5.07,5.07,0,0,1,.66.86,5.82,5.82,0,0,1,1.82-.81c.78-.9,1.29-1.37,1.52-1.41V271l3.26-2.77.06-.52c.21,0,.62-.41,1.23-1.12l1.07.23.58,1.3-.23,1.12-.58-.23-.29.63h-.55a3.3,3.3,0,0,1-.95,1.41v.32l-1.58,1.47-.29.75a15.5,15.5,0,0,1-1.84,1l-.23.43-.06-.14-.35.6-.77.23-.12.4h-.4l.17.44-.46.89-.43.11c0,.31-.28.88-.95,1.7l-1.36.06-.29.84-.83.23a2.58,2.58,0,0,1-1.53-1.18L429.24,276l-1.84-4.12.17-1.53-.4-1.35.29-.06a6.42,6.42,0,0,1-.84-2.54l.14-1.06-.89-.55-.6.37v-.14l-.29.14-.78,2-.4-.17-.12.4-.29-.11v.26h-.11a10.74,10.74,0,0,1-.84,1.47l-.23-.12-.17,1.24-.61.32a1.52,1.52,0,0,0-.77.75l-.23.57.26.35-.67.23-.29,1.18-.49.26.15.23a6.08,6.08,0,0,1-1.12.69l-.26.43-.23-.31-.41,1H417l-.49,1.67-.52.18-.06.86h-.84l-.83,1.9-.4.29h-.35l-.11.55-1.85.69-1.93.06-.83-5.48.34-.72.09-.57a12.59,12.59,0,0,1,.69-1.73l-.12-.4a10.42,10.42,0,0,1,.7-1.42l-.23-.11.54-1.41,0-.55a5.09,5.09,0,0,1,.43-1.07,3.51,3.51,0,0,0-.46-1.58l.23-.4.75.11a3.75,3.75,0,0,1,.84-1l.17-.52h.12l-.41-.6.35-1.53.23.12c.23-.6.37-.9.43-.9l-.11-.75.8-1.49v-.41l-.17-.34,1.18-2.54,1.35-1.84a7,7,0,0,0,1.19-1.36l1-.4,1.36-1.41,1.29-.78h.78l.64-.17h.89l.4-.67.84.06h.83V250a1.73,1.73,0,0,1,.75.29l.9-.35.66.18.17-.23.69.23Zm-7.44,4.56-.72.11-.89-.06-.29.52v.43a6.65,6.65,0,0,1-1,.41l-.52,1.29a8.37,8.37,0,0,1-.49,1.76H419l-.41.95-.2.81a.93.93,0,0,1-.57.6l-.29,1L417,263a2.08,2.08,0,0,0-.26,1v.23l-.29-.23v.46h-.17l.05.29-.23.49-.34,1.53-.61,1.24-.11,1.75-.18.26h-.11l-.12.52.23.23-.28,1.07h-.12l.12.34h-.44l.06,2.14.26,1h.12l.63-.61,1.67-2.36,3-3.95.89-.95,2-3.23,2.07-2.76.18-.61-.41-.52.75-1.29.17-1a3.39,3.39,0,0,1,.49-.75l.06-2.31-.78-.05h-.63l-.84-.58-.17.29Z"/><path class="cls-1" d="M498.24,244.89l1.3.29v.26l.4-.14.75.66a2,2,0,0,1,.43.72l.84-.32.11.55.55.81.17,1.9a12.88,12.88,0,0,1-1.23,1.47h.51l.18.55-.41.51.41.23c-.54.62-.81,1-.81,1.13l-.66.11v.67l-.52,1.06h-.43a6.15,6.15,0,0,1-.95.81l-.12.95-.4.52-.41-.12-.11.78-.72.84V259a10,10,0,0,1-1.47,1.47l.17.35-.52.28-.28.46a4.34,4.34,0,0,1-.95.72l-.47,1a3.6,3.6,0,0,1-.92.95v.51l-4.75,4.84-1.61,2.14a3,3,0,0,0-1.13,1.35,7,7,0,0,0-1.18,1.18l-.52,1a2.26,2.26,0,0,1-.69.66l-1.21.92c-.08.77-.15,1.34-.23,1.7H481l-.18.32-.54-.32-1.59.84h-.4l-.26.78-.52-.23v-.32l-.52-.12.12.29-.95.38-.84-1.85-.52-.28.18-1-.58-1.06.17-.81.23-.23v-.55l.29-1.23a3.07,3.07,0,0,1-.69-2l.17-1.47-1.24-1.18L472.23,267,472,266v-.17l-.55-.78h-.29l-.54,1.5v1.59l-4.3,3.88-.34.72a4.26,4.26,0,0,1-.84,1l-.11-.11-.29.66-.32.17.43.55-.43.23-.23,1.76-1.18.23-1.35,1.67-.7.63h-.54l-.23.67a3,3,0,0,1-1.24-1.85,2.16,2.16,0,0,1-1.07-.4,3.11,3.11,0,0,1,.95-1.35l-.11-.55.52-.92.11-2.68H459l.57-.29a12.84,12.84,0,0,1-.8-2.54c.13-.05.3-.58.52-1.58a10.69,10.69,0,0,0-1.76-2.53l-.23-1.24.23-.44v-.51l.4-.67-.23-1-.78-.9a1.41,1.41,0,0,1-.29-.49l-.28-.8-.84.28-.11.29h-.78l-.29-.92.84-.95,1.06-1.9.52-.29-.12-.11h.35v-.12l.72-.11,1.18-1.24h.95a3.37,3.37,0,0,0,.81-.78v.23l.78-.4.95.17h1.06v.78l.29,1.06-.29.81.18.29-.32.14-.12,1,.12,1.06-.52.84.12.78v.52l-.41.17-.23.55.12,1.7-.12.72v1.7l-.11.11-.2,1.35.43,1v1.06l.29.29.23,1.3.72.28c.38-.74.67-1.14.86-1.18v-.57l.43.4.29-.52v-.43l.4-.12.26-.51.52-.29-.11-.38a3.07,3.07,0,0,0,1.18-.52l.29-.72v-.4l.11-.34.29.11-.29-.66h.55l.52-.58,1.64-2.25a3.66,3.66,0,0,1,.95-.4v-.43h.23v-.52l.12.12v-.52l.83-.38,1.73-2.42.17.12.12-.41.52-.11.29-.4.14.11.23-.95,1.47-1.18h.52V255l.6.78h.23l.41-.23v-.18l.95.41-.29.83-.66.4h-.64l-.29.64,1.76.43-.4.52-.55.11-.81.84.12,1.47v.55l.17.63-.29.84.81,2.53-.17.84.72.86.75,2.59.17,1.18-.17.84.43.52.69-.18c.67-1,1-1.5,1.07-1.58h.34l.2-.11h.41l.11-.41.12.52v-1.18l1.35-.84,1.18-1.58,1.93-2.22a3.6,3.6,0,0,1,1-.72v-.43l.92-.81.12-.37.2.11.11-.4a4.56,4.56,0,0,0,1.19-.95l1.75-2.1,1.07-1.07v-.12l.29-.43.66-.69a3.63,3.63,0,0,1,.92-1.06l.26-.78.4-.41,1.07-1.58v-1.24l.29-.83-1.59-.9-.83.12-.29-.29-.12.29-.74-.06a8.66,8.66,0,0,1-1.5-.63l-.41.28-.43-.11-.29.4h-.34l-1.13.9-.54-.23-.75.8h-.72l-.23-.57.95-.35.52-1.67.23-.12,1-1.7,2.19-1,2.24-.4.41-.29h.55l.92-.55Z"/><path class="cls-1" d="M511.51,251.75l.72.12h.12l-.12.28h.23l.41.41,1.35.11h1.35l.78.44h.29l.43,1.46-.6.52v.55l.95.95-.12,2.65h-.4l-.15.52h-.11v.84l.55.11.23.29-.35.55v.4l-.72.34-.52.44-1.5.8a7.41,7.41,0,0,1-1,1l-.43,1.19-2.54,1-2.54-.05.12.63h-.52l-.11.17-1.24.26-.12-.43-.43.17v.26l-1.07.41-.4,1.18.55,1.47v.72l.29.63c-.39,1.13-.67,1.73-.84,1.79l.17.51-.28.12.66.29v.89l.57.4a8.78,8.78,0,0,0,1.76-.63l.43.4.12-.11a13.05,13.05,0,0,0,1.87-.29l.2-.35h.69l.55-.05.69.34-.17-.23h.58l.72-.6.83-.06h-.17l.81-.35.23.18.43-.41h.58l.54-.54a6,6,0,0,0,2-.75v-.32l.83-.23.9-1.3.95.12a2,2,0,0,0,1.15.55l.43.4-.66,1.24.11.78-.92.51-.11.29-1.39.18-.74.77-.84.06-.23.66-1.12-.11-.35.8-.89-.11-.35.4a5.47,5.47,0,0,0-1,.44l-.4-.24-.66.64h-1l-.58.29h-.34l-.44.37a7.21,7.21,0,0,0-1.52.63l-.41-.28h-.83l-.35.28-.32-.11-.4.11-.11-.11L506,280h-.78l-.63.35a4.89,4.89,0,0,1-1.39.29l-.28.28h-.52l-.78.12-.58.72-.78-.29-.4.52-.32-.09a9.13,9.13,0,0,1-1.15-1.09l.12-.69-.12-.38.12-.69-.43-1.06.17-.84-.29-1.3.29-1.06-.41-1.64-.11-.12.11-.84,1-.34v-.58l-.41-.14.12-.75-.26-.43.14-.69.41-.23-.12-.67.12-1.12.23-.12.4-1.35.95-1.7.84-.32.11-.92-.11-.26.11-.52.52-.28.32-.95h-.72v-.35l.28-.43-.11-.41.11-.4h.12v-.95l.95-.11.4-.84,2-2.25h.4a3.15,3.15,0,0,1,.9-.92l.4.12a2.51,2.51,0,0,0,1-.95h.29l.55-.35H509l.4-.61Zm-.69,4.9-1,.34-.78-.34a7,7,0,0,1-1.12.8,2.09,2.09,0,0,1-.59,1.27c-.34.35-.57.52-.71.52h-.51l.34.63c-.21.39-.49,1-.83,1.79l-.47-.11-.17.74.17,1.07.58.32a6.39,6.39,0,0,0,1.44.34l.92-.6,1.9-.17,1-1.47,1.36-1.13.17-2.13-.46-.69-.06-1h-.66Z"/><path class="cls-1" d="M534.26,226l.92.28.12.52v.43l.26.64-.26.29.11.77-.52.72v.75l-.52.12.12,1.12-.78.89-1.47,3.78-1,3.77-.4,1.18-.12-.28-.31,1.75-.12-.11.26,2.53-.55.78v.58l.29.66-.29.11-.23-.23.12.75-.12.44-.28.57a12.91,12.91,0,0,0-.44,2l-.11.12.83.83-.11.63a2.63,2.63,0,0,0-1.13,1h.52v.17h.61l1.06.34a4.46,4.46,0,0,1,2-.63l1.18.12.84-.12.11.29,1-.17.12.28,1.07-.4.8.29-.11.11h.43l1.3-.8.51.17v-.32h1.67l2.54.67.52.72.11-.21a12.24,12.24,0,0,1,2.42.84l.12.29.83.66-.83,2.3-.23.35h-.4l-.12.4v1.24l-.2-.29-.12.55-.8.41-.26,1.18-.81.69.17.26h-.28l.11.11-.43.29-.12.52c-.53.19-1.1,1-1.7,2.3l-.28-.17.11.29-.55.11-.11.55-.29-.11-.12.51-.77.67v.29l-.29.51-.4-.11.17.23-.84.2v.35l-1.06.83.11.29-.29.35h-.34l-.17-.23-.24.4h-.31l.17.37-.4.18-.29.74-.23.18v.26h-.55l-.29.52-.23-.12a2.73,2.73,0,0,1-.95,1.35v.23h-.29l.12.44-.35-.26-.17.37h-.43l-.23.92L532,276l-.26.55a5,5,0,0,0-1.24.8l.14.38h-.26V278h-.4a2.51,2.51,0,0,1-.84.51l-.11-.11-.52.55a6.15,6.15,0,0,0-1.18.95l-.72-.15-1.82,1.44v.29h-.43a6.62,6.62,0,0,1-1.76,1.47l-.11.29-.29.11-.26.67-.29-.23-.63.51-.12-.17-.31.95-.52-.78-1.07-.17-.52.17-.43-.4.55-.95.63-.29.61.18.86-1.07v-.84l.43-.4.29-1.07.66-.66a2.81,2.81,0,0,0,.55-.69l.38-.95.54-.35-.43-.28.55-.55-.12-.81a4.89,4.89,0,0,1,.52-2.24l-.11-.29,1-.95v-.95l-.29-.78.29-.81.4-3a3.11,3.11,0,0,1-.52-1l.52-.67-.17-.72.17-.63-.17-.55-.12-1.87.12-3.37a2.18,2.18,0,0,0,.55-1.18h.4v-.63l.29-.32-.29-.12.29-.29-.12-.23v-.83l-.17-.23a9.41,9.41,0,0,1,1-1.64l-.43-.55.17-.4.38-.23.17.11.23-.55-.64-.4.12-1.3.4-.52-.28-.83a7.47,7.47,0,0,1,.69-1.9l-.18-.92.61-1.62-.2-.8v-.67l.2-.28-.43-.55.11-1.15a8,8,0,0,0,.66-1.79l-.23-.52-.72-.37-.11-.81-1.18.12-.52.69a5.69,5.69,0,0,1-.91,1.26A8,8,0,0,0,524,239h-.23l-.95.43-1.47-.26-.52.26-.57-.37a7.73,7.73,0,0,1-1.1-1.36l.72.12.12-1.18,3.48-2.83a4.57,4.57,0,0,0,1-.28l1.76-1.19.52-.11a2,2,0,0,0,.66-.95l.84-.52,1-1.38,1.9-2,.89-.12.17-.54h.52a4.11,4.11,0,0,1,1.3-.52Zm3.17,32.15-.23.11-.72-.11-.41.11.18.17-.41.12-.11.23-.17-.35-.15.23-.63-.23-1.07.35a1.84,1.84,0,0,0-.83-.35,5.87,5.87,0,0,1-1.36.67,1,1,0,0,1-.63.8l-.12-.17-.31.43-.12-.26-.11.12-.52-.52h-.29l-.14-.29h-.52a6.85,6.85,0,0,1-.84,2l.66,1.24-.66,2.68.43.83a3.79,3.79,0,0,1,.23,1.59l-.11,1.15.11.72-.72.52v3.71h-.23l.29,1.91-.11.4.11.55.66-.29,1-1.18,1.23-.84,2-2.36.26-.4.52-.18a7,7,0,0,0,.72-1.18l.4-.26,1.3-1.47.11-.57h1.13L537,267l.63-.46.32-.89,1-.52,1.24-2.13.26-.29v-.26l.4-1.24-.51-1.7a4.13,4.13,0,0,1-2.25-1.24Z"/><path class="cls-1" d="M584.05,234.64l.83.11.12.41.4.11-.11,1.18v.44l-.41.4-.09.92a2.34,2.34,0,0,1-.57,1.38l.37.23-.66.29v.67l-.63.63v1.06l-.2-.11-.35.72-.14,1.18a2.52,2.52,0,0,1-.44.81l.18.66-.26.72a1.79,1.79,0,0,1-.38.66l-.6.61v1.06l.29.12-.29,1.67.17.35-.72,1.23v1.07l-.52.52v1.35l-.66,1v.55l.26.23-.15.81.32.43a2.17,2.17,0,0,1-1.24,1.18l-.11.81.4.26-.83.52.11.6-.11.75a8.79,8.79,0,0,0,1.78-.23l.52.23-2.42,3-.81,3.22-.54.35.11.95-.23.29.12.43-.12.23v1.24l.12.78h-.23l-.18.69-.43.34h-.23v1.5l.55.29-.67,1h.24l-.12.52.43.55V278l.41.4-.18,1,.29.55V282l-.4.11.4,1v.83l.52,2,1.73,3.72h-.12l.92.83c.56.9,1,1.61,1.39,2.13.59.33.94.61,1,.84h.26v.29l.58.34h.35l.54.4a2.29,2.29,0,0,0,1.65-1.29,3.24,3.24,0,0,0,1.46-.81l.55.92-.43.15v.52l-.52.28.12.67v.52l.4-.12v1l-.81.4.18.23-.41.12-.2.32.2.23h-.43l.12.29a5.34,5.34,0,0,0-1.7.83,7.54,7.54,0,0,1-1.36-1.35l-1.18.4-.6-.72-.23-.52-.18-.14a.82.82,0,0,1-.21-.3c-.07-.15-.15-.32-.25-.51V295l-.43-.66V294l-.52-.34L575.92,290l-1.78-3.2.17-.4-.69-1.07.52-.29-.23-.55-.18-1.46-.23-.52-.31-1.18-.52-.78a2.54,2.54,0,0,1-.21-.9l-.2-1.58v-1.18h-.14l.32-1.24-.18-.63-.77-.12.23-.55.28.23-.4-1.69-.52.63.52-1.7h-.4V272l-.43-.11-1.3,1.3-.12-.12-.8.4V274l-.67.52v.29h-.4l-.49.37a2.49,2.49,0,0,1-1,.29l.15.63-.67.44a3.47,3.47,0,0,1-.72,1.58v.4l-.51.44v.63l-.52-.12-.78,1.59-1.12.43-.23.52-.55.11v.21l-.81.34h-.11a2.8,2.8,0,0,0-.67-1.29v.23a4.55,4.55,0,0,0-1-1.07l-.17-1.47.17-.66V278a1.85,1.85,0,0,0-.4-.67l.23-.4v-.4l.17-.84-.52-.52.52-.37a4,4,0,0,1-.4-1.76v-.4l.12-.67-.24-.69.52-.89-.28-1.79h.28l.26-.92v-.43H559V264.6l.4-.29.12-1.29v-.55h1l.23-1.47,1,.23.66-1.7V259l.18.23a13.64,13.64,0,0,0,.92-2.25l.37-.28v-.44l.18.44.11-.84.52-.11.32-.67v-.29l.4-.11a6.66,6.66,0,0,1,1.58-1.58l.12.23.43-.52.52.17.23-.17v-.26l.32.11.4-1.18,1.3.38-.12-.12H571l-.2-.11.43-.15,1.41.2,1.7,1h-.58l1.13.32v.23l.75.84q.35,1.23.54,1.29l.41-.14.28-.81.55-.23v-1.35l.12-.44.4-.11-.12-1,.24-.4.66-.35-.23-.55.11-.17-.54-.23v-5.36l.43-.43a2.11,2.11,0,0,1,.23-.75l-.12-.2v-1.59l-.66.41-.52-.12a2,2,0,0,1-.72.26l-.11.52-.84.4h-.35l-.69-.52-.37-1.06L574,241l.29-.35-.29-.84.29-.4.55-.11.11-.44.52-.11.55-.95h.29l.11-.29,2.13-1.58.12-.24h.95v-.31l.29.31h.4l.12-.43a2.08,2.08,0,0,0,.95-.4Zm-14.47,21.95-.23.75-1.87,1-.83,1.76-.41.26h-.11l-.26.4-.17-.11-.24.63.24.32a3.76,3.76,0,0,1-.52,1.7v.51a2.6,2.6,0,0,0-.78,1.39h-.29v.63l-.4,1.24.29.66a10.77,10.77,0,0,1-1,2.16l.24.38v1.06l.31.29-.43.63.12.84.54.63v-.23l.41.23.83-.34.23.11,1.47-1.75.4-.12v-.11l.84-.84,1-.4.63-.78.44-.17,1.35-1.18,1.82-1.36.37-1.12a4.38,4.38,0,0,1,.75-.9A4.19,4.19,0,0,1,575,263l-.83-1-.12-2.13-.11-.69V259a2.21,2.21,0,0,1-.41-.83h-.43l-.11.63-.7-.12v-.63l-.26.12-.11-.41-.81.29-.83-.29-.12-.66Z"/><path class="cls-1" d="M596.62,251.75l.72.12h.12l-.12.28h.23l.41.41,1.35.11h1.36l.77.44h.29l.43,1.46-.6.52v.55l.95.95-.12,2.65H602l-.14.52h-.12v.84l.55.11.23.29-.35.55v.4l-.72.34-.52.44-1.49.8a8,8,0,0,1-1,1l-.43,1.19-2.54,1-2.53-.05.11.63h-.52l-.11.17-1.24.26-.12-.43-.43.17v.26l-1.06.41-.41,1.18.55,1.47v.72l.29.63c-.39,1.13-.66,1.73-.84,1.79l.18.51-.29.12.66.29v.89l.58.4a8.59,8.59,0,0,0,1.75-.63l.44.4.11-.11a13.05,13.05,0,0,0,1.87-.29l.21-.35h.69l.54-.05.7.34-.18-.23H597l.72-.6.83-.06h-.17l.81-.35.23.18.43-.41h.58l.54-.54a5.94,5.94,0,0,0,2-.75v-.32l.84-.23.89-1.3.95.12a2,2,0,0,0,1.15.55l.43.4-.66,1.24.12.78-.93.51-.11.29-1.38.18-.75.77-.84.06-.23.66-1.12-.11-.35.8-.89-.11-.35.4a5.47,5.47,0,0,0-1,.44l-.4-.24-.66.64h-1l-.58.29h-.34l-.44.37a7.43,7.43,0,0,0-1.52.63l-.41-.28h-.83l-.35.28-.31-.11-.41.11-.11-.11-.29.66h-.78l-.63.35a4.71,4.71,0,0,1-1.38.29l-.29.28h-.52l-.78.12-.58.72-.77-.29L585,282l-.31-.09a8.76,8.76,0,0,1-1.16-1.09l.12-.69-.12-.38.12-.69-.43-1.06.17-.84-.29-1.3.29-1.06-.4-1.64-.12-.12.12-.84,1-.34v-.58l-.41-.14.12-.75-.26-.43.14-.69L584,269l-.12-.67.12-1.12.23-.12.4-1.35.95-1.7.84-.32.11-.92-.11-.26.11-.52.52-.28.32-.95h-.72v-.35l.29-.43-.12-.41.12-.4H587v-.95l1-.11.41-.84,2-2.25h.41a3.12,3.12,0,0,1,.89-.92l.4.12a2.45,2.45,0,0,0,.95-.95h.29l.55-.35h.23l.4-.61Zm-.69,4.9-1,.34-.77-.34a7.47,7.47,0,0,1-1.13.8,2.09,2.09,0,0,1-.59,1.27c-.33.35-.57.52-.7.52h-.52l.34.63c-.21.39-.49,1-.83,1.79l-.46-.11-.18.74.18,1.07.57.32a6.73,6.73,0,0,0,1.44.34l.93-.6,1.9-.17,1-1.47,1.36-1.13.17-2.13-.46-.69-.06-1h-.66Z"/><path class="cls-1" d="M619.17,248.44l1,.23.55.83.52.23-.41,1.47-1.29.78-5.28,2.54-.8,1.41.17,1.58,1.82,2.74.37,1.24,1-.15,1.12,1.07v1.07l.55.23,2,3.77.6.89a8.73,8.73,0,0,0-.23,1.47l.12.44-.55.8-.92,2a8.14,8.14,0,0,0-2.08,2.31l-.78.11-.11.4-3.66,2.86a6.7,6.7,0,0,1-2.25,1.7l-3.45.95a3.68,3.68,0,0,1-1.24,1.06l-.55-1.06v-.67l-.4-.51,1.12-.84a3.18,3.18,0,0,1,.49-.75l.29-.26a5.86,5.86,0,0,1,1.38-.4,1.81,1.81,0,0,1,1.07-.66h.43c.56-.47,1-.81,1.18-1h.4l.12-.32.4-.11.26-.87h.23l.52-.83.84-.35.23-.72.28-.23.55-1.79-.43-.92-1.18-3.48-2.77-2c-.46-.64-.87-1.16-1.24-1.59l-.23-.95a4,4,0,0,0-.66-1.24l-.29-.11-.4-1.13v-.4a5.59,5.59,0,0,0-.4-1.41l.75-1.9.28.11v-.83l.67-.52v-.35a10.06,10.06,0,0,0,1.47-1.23h.54v.4l.52-1.07v.23c0-.11.39-.32,1.12-.63a.72.72,0,0,1,.64-.55,13.11,13.11,0,0,0,1-1.35l.55-.12.4.12.23-.23h1v-.18l1.64-.49a4.07,4.07,0,0,0,1.18-.57Z"/><path class="cls-1" d="M635.12,255H635l-.23,1.5.23.18-.4,1.06-.12-.2V258a3.53,3.53,0,0,1-1.06,2.42h.23v.52h-.12l.12,3.37-.23.4.11.55-.43,2.1h.15A7,7,0,0,1,633,269l-.26.77-.35,3.84c-.07.38-.11.6-.11.66,0,.34.15.52.46.52a2.34,2.34,0,0,0,1.21-.43l1.87-1.27c.52-.64.89-1,1.12-1h.18a2.72,2.72,0,0,0,.92-.78,2.06,2.06,0,0,1,.66-.63q.44-.78.78-.78l.23.06,1.07.2.23.8a3.35,3.35,0,0,1-.46,1.52c-.31.56-.56,1-.74,1.41a2.1,2.1,0,0,1-1.22.91v.2l-.41-.12v.41h-.26a.9.9,0,0,1-.8.89v.17h-.78v.12H636l-.78.51H635l-.4.55-1.18.18a.58.58,0,0,1-.55.34l-1.47,1.07v.23l-.72-.12.2.29-1,.23V280h-.4v.41l-.43.29H629v.11c-.25.71-.6,1.07-1.06,1.07l-.41-.12a6.88,6.88,0,0,0-1.18-2.13,5.9,5.9,0,0,0,.23-1.35l-.23-1.19v-.63a10.77,10.77,0,0,1,.17-1.84l.18-.75v-.15h-.06s-.06,0-.06-.05a9.65,9.65,0,0,1,.28-.93,7.64,7.64,0,0,0,.27-2.24c0-.23-.09-.37-.26-.41l.37-.77v-3.49l.47-1a8,8,0,0,0,.46-1.81c.25-.16.39-.3.43-.43l-.23-.35.23-.58c-.31-.59-.66-.89-1.07-.89h-1.35a.69.69,0,0,0-.23.52h-.2a1.1,1.1,0,0,1-.75.95,1,1,0,0,1-.84.89l-.52.84h-.11q-.21.63-.72.63c-.39,0-.7-.28-.94-.83a6.34,6.34,0,0,1-.36-.93.41.41,0,0,1,.12-.25,3.28,3.28,0,0,1,1.78-2.11v-.23a4.94,4.94,0,0,1,1.3-.95h-.26a1.66,1.66,0,0,0,1.46-1.28c.14-.68.64-1,1.51-1l.34.11.72-.34H628l.66-.44.18.12.52-.63.14.11a1.52,1.52,0,0,1,1.58-.84c.2,0,.29-.07.29-.23v-.28h.23l-.11-.12,1-.66a1.56,1.56,0,0,1,1.47-.81,1.86,1.86,0,0,1,1.11.35.93.93,0,0,1,.47.69A2.34,2.34,0,0,1,635.12,255Zm4.18-16.85h-.18l-1.06,2.28-.12-.12a.67.67,0,0,1-.29.55V241a3.8,3.8,0,0,1-1.58,1.46l-.23-.11v.23a5,5,0,0,1-1.74-.48,2,2,0,0,1-.93-1.09c-.2-.51-.39-1-.59-1.6a2.15,2.15,0,0,1,.72-.72l.23-.78,1-.52.52-1.12,1-.52v.18l.52.23a1.43,1.43,0,0,0,.28-.19.92.92,0,0,1,.2-.17,2.07,2.07,0,0,1,.67-.24,2.67,2.67,0,0,0,.84-.3l.32-.17H639l.43.66v.92l.11.84Z"/><path class="cls-1" d="M657.17,293.87v.78l-.28.17.11.75-.63.11-.12.72.23.52-.23.67.12.51-1,2.74-.12-.2c-.4,1-.62,1.63-.66,1.79l-1.76,1.69-.4.73v.51h-.26l-.29.67-.11-.12-.41.92-.66.26-.69,1.15A4,4,0,0,1,649,309l-.37,1-1,.54a3.6,3.6,0,0,0-.78.87l-.66.11-.81-.11-.37.54a11.43,11.43,0,0,0-1.17.8,1.93,1.93,0,0,0-.7,1.08,5.36,5.36,0,0,0-1.24.54l-.35-.26.12-.17-.84-.52-.11-.66a13.59,13.59,0,0,1,1.06-1.87l1.07-.12a5.22,5.22,0,0,1,.69-1.24c1.08-.25,2-.49,2.71-.72l.6-1.06a27.58,27.58,0,0,0,2.54-2l.34.35-.11-.72a6.3,6.3,0,0,1,1.41-1.7l-.12-.35a2.71,2.71,0,0,1,1.24-.95l-.28-.55.28-1.24.78-.92a1.33,1.33,0,0,1,.52-.55l.72-4c.1,0,.38-.55.84-1.64l.17-1.38.46-1v-.66l.11-.52-.23-.55v-.52l-.28-.32.11-.63-.11-.4.4-.12-.29-1.12.17-.66.35-.23-.23-1,.4-.17-.4-1.06c-.1-.75-.19-1.15-.29-1.19l.29-.51-.84-4.21.21-.92-.55-4.55-.69-.41-.67.29-.11-.11-.29.4h-.55v.66l-.8.23a3.39,3.39,0,0,1-1.3.41l-.32.4-2.1,3.37L645.39,280l-.66.52-.23-.11v.51l-.58.67h-.37l-.52.17v.55l-1.12.23v.11l-.35-.11-.43.29-.29-.52.29-.84-.52-.43.4-.4-.29-.23.12-.52-.52-.15.12-.29-.12-.51v-.84l.29-.4a11.76,11.76,0,0,0-.4-1.62l.23-.23-.12-.4.12-.66V274l-.38-.11.26-.44-.26-.8h.15l-.15-.44a1.15,1.15,0,0,0,.38-.63l.28-.11v-.72a13.36,13.36,0,0,0,.52-1.47h-.4l.17-.35h.23l.67-2.42.46-1.09a4.61,4.61,0,0,0,.37-1.33l.52-.66a5.05,5.05,0,0,1,1.07-2.71l1.87-1.9.83-.23a4.59,4.59,0,0,1,1.5-1.61l1.59-1.24a2.59,2.59,0,0,1,.8-.38L651,255h.78l.72-.69a3.58,3.58,0,0,0,1.18-.67l1.35-.11.92-.17h.55l.12-.12.4.29v-.17l.66.17.17-.29.78.29.52-.17.17.51.35-.11.32.11-.12.21.52-.21.23.55-.12.4.67.41a15.57,15.57,0,0,1,.4,1.78l.12.12.95-.29.17-.66.78-.29h.52l.83.84-1.47,2.3-.83.12-.78,1.06h-.4l.23,1.47-.12.81-.4,6-.26,1.35v.55l-.81,1.07.29,1.87-.17.78-.23.11.4.58H660l-.32,1.61.32.75-.44.32a11.66,11.66,0,0,0-.51,2.42l-.29.23v.4l-.38.12.26.83a3.63,3.63,0,0,1-.43,2.13,12.74,12.74,0,0,0,.72,2.28l-.72.14-.23.69h-.29l.4.55-.23.52h-.17l.29.52.23,1.5-.12.52.29,1.06-.29.52h-.4Zm-2.53-35.69-.52.4-.55-.12-.29.23h-.95l-.34-.23-.41.35h-.4a1.75,1.75,0,0,1-1.06.55h-.55l-1.36,1.75c-.42.75-.7,1.15-.83,1.18l.2.73-.43,1v.11l-.81.12v1.87a4.8,4.8,0,0,0-.37,2,5.66,5.66,0,0,0,.54,2.42l-.31,1.58.43.55h.52l.43-.67a8.47,8.47,0,0,0,1.58-1.46,8.89,8.89,0,0,0,2-1.36l.4.29a2.84,2.84,0,0,1,2.25-1.47l.69-.84-.52-1.69a4.75,4.75,0,0,0,.64-1l1-.51.55-1,.28-.29.12-.44.52-.51v-.55a10.76,10.76,0,0,0-.81-1.59v-.4Z"/><path class="cls-1" d="M676.46,251.49l1.13.15,1.61-.21v2a1,1,0,0,0-.49.78,1.39,1.39,0,0,0-.81,1.24,1.72,1.72,0,0,0,.06.52l-.2,1.12L675.6,261l-.32,1.9-.52.69.06,1.47L674,269a.33.33,0,0,0-.12.23.49.49,0,0,0,.29.4l1.32-1.64.75-.4.61-1.39,1.12-.8,1.36-2.08a4.85,4.85,0,0,1,2.36-1.52,2.63,2.63,0,0,1,.86-1.42,3.3,3.3,0,0,0,.72-.51c.41-.33.78-.61,1.13-.84l-.12-.2c1.38-.75,2.06-1.26,2.05-1.53a3.68,3.68,0,0,0,1.9-1.47c1.38-1.26,2.38-1.94,3-2a3,3,0,0,0,.77-.28,3.62,3.62,0,0,1,.9-.3,1.93,1.93,0,0,1,1.59-.78q.57,0,.57.84l.09,1.87-.37,1.07-.06,1.35-.63,1.61-.67,4.07a.53.53,0,0,1-.4.4l.35,1.29-.41.73.69.4-.23.37a6.14,6.14,0,0,0-.57.92,5,5,0,0,1,.46.55l-.17,2.31h.11c.19,2,.41,3,.66,3l1.24-.46a5.85,5.85,0,0,1,2.22-2,1.35,1.35,0,0,0,.78-.34c.3,0,.5-.1.57-.29a3.77,3.77,0,0,1,.92-.42,10.4,10.4,0,0,0,1.71-.76l1,.23a1.35,1.35,0,0,1,.44.63c-.52.64-1.08,1.4-1.69,2.28s-1,1.32-1.28,1.32H699l-.6.9-1.47.28-1.3,1.68-1.06.28-4.07,2.83-1.23,1.24-.18-1.07-1.06.06-.38-1.76-.57-.46-.06-2-.29-1.24c0-1,.19-1.58.58-1.64v-.14l.34-1.36-.06-1.87.67-1.29-.46-.55.92-1.07.06-2.22.49-1.06-.84-1.13.23-.05v-.84l.55-.29v-.17l-.06-.49v-.12a2.49,2.49,0,0,0-1.3-.46l-1.38,1.13-1.93.89-2.82,3.17-.43.66c-.85.85-1.26,1.32-1.24,1.41l-.58.41a4.28,4.28,0,0,0-.11.78l-1.13,1.29-1.18,1.7-2,3.2h-.11l-.35.81-.54,1.9a23.66,23.66,0,0,0-2.16,2l-1,.23-.6,1-.4.06-.78-.17a3.54,3.54,0,0,0-1.36.29l.61-1.19.23-1.06a40.23,40.23,0,0,0,1.7-5h.11v-.83l.61-1.7.23-1.47h.12l-.29-1,.29-1.79.2-.63a5.38,5.38,0,0,1,.8-1.24l-.17-.78.35-.52a7.14,7.14,0,0,1-.52-2.53l.17-1-.11-.18v-.34a3.1,3.1,0,0,0-1.79-.55,1.66,1.66,0,0,0-.68.17,4.25,4.25,0,0,0-1.08,1.56,20.16,20.16,0,0,0-2.19.81l-.52-1.13a1,1,0,0,1,.31-.75.89.89,0,0,1,.5-.26h.49l.46-.63.9-.23-.35-.23v-.32l1.09.18,1.18-1.3,1.68-1,.28-.38h.18l-.29-.4a.86.86,0,0,0,.34.12c.16,0,.23-.18.23-.52a3.46,3.46,0,0,1,2.14-1.36,1.39,1.39,0,0,1,1.29-1v-.28Z"/></svg>